<svg xmlns="http://www.w3.org/2000/svg" viewBox="158.5 198 701.64 636">
    <path id="Pfad-Kopie-2" fill="#0a2c47" fill-rule="evenodd" stroke="#000000" d="M 323.4375 515.179382 C 269.824097 550.774353 215.231552 562.779785 158.998367 566.9375 C 188.451218 543.855347 207.757416 523.538696 216.72525 508.614624 C 226.626373 492.137329 210.965561 477.946228 172.30069 464 C 222.757278 473.253723 272.133392 479.652405 323.4375 515.179382"/>
    <path id="Pfad-Kopie-4" fill="#0a2c47" fill-rule="evenodd" stroke="#000000" d="M 323.4375 722.179382 C 269.824097 757.774353 215.231552 769.779785 158.998367 773.9375 C 188.451218 750.855347 207.757416 730.538696 216.72525 715.614624 C 226.626373 699.137329 210.965561 684.946228 172.30069 671 C 222.757278 680.253662 272.133392 686.652344 323.4375 722.179382"/>
    <path id="Pfad-Kopie-3" fill="#0a2c47" fill-rule="evenodd" stroke="#000000" d="M 323.4375 306.179382 C 269.824097 341.774353 215.231552 353.779785 158.998367 357.9375 C 188.451218 334.855347 207.757416 314.538757 216.72525 299.614624 C 226.626373 283.137329 210.965561 268.946228 172.30069 255 C 222.757278 264.253723 272.133392 270.652405 323.4375 306.179382"/>
    <text id="Up" xml:space="preserve"><tspan x="412" y="789" font-family="Metropolis" font-size="220" font-weight="700" fill="#0a2c47" xml:space="preserve">U</tspan><tspan font-family="Metropolis" font-size="220" font-weight="700" fill="#0a2c47" xml:space="preserve">p</tspan></text>
    <text id="Me" xml:space="preserve"><tspan x="412" y="582" font-family="Metropolis" font-size="220" font-weight="700" fill="#0a2c47" xml:space="preserve">M</tspan><tspan font-family="Metropolis" font-size="220" font-weight="700" fill="#0a2c47" xml:space="preserve">e</tspan></text>
    <text id="Link" xml:space="preserve" x="412" y="373" font-family="Metropolis" font-size="220" font-weight="700" fill="#0a2c47">Link</text>
</svg>