<?xml version="1.0" encoding="UTF-8"?>
<!-- Generated by Pixelmator Pro 3.7 -->
<svg width="887" height="375" viewBox="0 0 887 375" xmlns="http://www.w3.org/2000/svg">
    <g id="Gruppe">
        <path id="Pfad" fill="#000" stroke="none" d="M 764 6.200012 C 764 8.200012 769.333374 9.400024 771.199951 7.799988 C 773.06665 6.200012 776.93335 7.266663 781.466675 10.599976 C 783.199951 11.799988 784.666626 11.666687 788.533325 9.799988 C 791.599976 8.333313 794.533325 7.93335 796.400024 8.466675 C 799.06665 9.266663 805.333374 9.666687 835.599976 10.733337 C 843.866699 11 844 11 846 15.93335 C 847.06665 18.733337 848.93335 21 850 21 C 851.06665 21 852 21.533325 852 22.333313 C 852 23 852.800049 23.666687 853.866699 23.666687 C 854.93335 23.666687 856 25 856.533325 26.733337 C 857.333374 30.200012 863.733276 33.266663 871.333374 33.799988 C 877.333374 34.200012 881.733276 34.866638 886.666626 36.200012 L 890.133301 37.133362 L 890.133301 96.733337 C 890.133301 129.533325 890.400024 196.466675 890.666626 245.399994 L 891.199951 334.466675 L 887.333374 336.466675 C 883.466675 338.466675 870.93335 339.133331 861.866699 337.799988 C 858 337.266663 853.733276 338.066681 841.199951 341.133331 C 838.400024 341.799988 833.866699 344.866669 830.400024 348.333344 C 824.93335 353.666656 823.599976 354.333344 819.466675 353.799988 C 815.599976 353.266663 806.666626 355.133331 793.733276 359 C 792 359.533325 790.666626 360.466675 790.666626 361.133331 C 790.666626 362.600006 770.666626 361.399994 768.666626 359.666656 C 767.333374 358.600006 766.400024 358.866669 765.06665 360.733337 C 763.733276 362.733337 761.733276 363.133331 755.333374 363.133331 C 750.93335 363 746.666626 362.600006 745.866699 362.066681 C 745.06665 361.533325 743.06665 362.333344 741.599976 363.666656 C 738.133301 366.866669 732.266724 369.266663 730.533325 368.200012 C 729.866699 367.799988 729.333374 368.200012 729.333374 369 C 729.333374 369.799988 728.666626 370.066681 727.733276 369.533325 C 726.800049 368.866669 723.733276 368.600006 720.93335 368.866669 C 718.133301 369 715.199951 368.600006 714.266724 367.933319 C 713.333374 367.266663 710.133301 366.333344 706.93335 365.933319 C 703.733276 365.533325 700.133301 364.333344 698.800049 363.133331 C 697.466675 361.933319 695.199951 361 693.733276 361 C 692.266724 361 690.133301 360.066681 689.199951 358.866669 C 687.866699 357.266663 686 356.866669 682.133301 357.399994 C 679.199951 357.799988 675.866699 357.666656 674.800049 357 C 673.599976 356.466675 670 355.666656 666.666626 355.266663 C 654.666626 353.666656 650 352.600006 647.06665 350.600006 C 645.333374 349.533325 644 349 644 349.533325 C 644 349.933319 642.400024 349.666656 640.400024 348.866669 C 637.333374 347.666656 623.466675 346.333344 613.333313 346.200012 C 606.666687 346.066681 582.666687 339.666656 582.666687 337.933319 C 582.666687 337.266663 581.466675 337.133331 580.133362 337.666656 C 578.666687 338.066681 577.200012 337.799988 576.799988 337.133331 C 576.266663 336.333344 572.266663 335.399994 567.866638 334.866669 C 563.599976 334.333344 559.599976 333.533325 559.200012 332.866669 C 558.666687 331.799988 557.200012 332.066681 552.400024 333.933319 C 548.266663 335.399994 543.466675 335.266663 538.133362 333.399994 C 535.333313 332.466675 532.533325 332.066681 531.866638 332.466675 C 530.400024 333.266663 518.400024 333.266663 512.666687 332.333344 C 510.533325 332.066681 504 331.399994 498.266663 331 C 492.400024 330.600006 486.533325 329.666656 485.06665 328.866669 C 483.333313 327.933319 482 327.933319 480.799988 328.866669 C 479.866638 329.666656 478.666687 329.933319 478.266663 329.533325 C 477.466675 328.600006 467.733337 330.733337 460.93335 333.266663 C 458.93335 334.066681 453.466675 334.600006 448.93335 334.600006 C 441.200012 334.600006 439.200012 335 431.733337 338.333344 C 427.599976 340.200012 416.133362 342.466675 412 342.333344 C 410.133362 342.333344 404.93335 342.333344 400.400024 342.333344 C 395.733337 342.333344 390.666687 341.799988 388.93335 341.133331 C 386.799988 340.333344 384.533325 340.600006 381.333313 342.200012 C 378.400024 343.533325 375.200012 344.066681 372.666687 343.666656 C 370.533325 343.133331 367.333313 343.266663 365.733337 343.933319 C 362.533325 345 358.666687 344.066681 358.666687 342.333344 C 358.666687 340.200012 352.133362 340.066681 350.133362 342.200012 C 348.93335 343.266663 346 344.466675 343.733337 344.600006 C 338 345.133331 331.333313 346.066681 331.333313 346.333344 C 331.333313 346.866669 321.333313 347.933319 317.333313 347.799988 C 300.799988 347.399994 295.733337 347.533325 288 348.866669 C 283.200012 349.666656 277.599976 350.600006 275.333313 351 C 270.533325 351.799988 268.400024 351.933319 258.133362 351.533325 C 251.599976 351.399994 249.733337 351.799988 248.133362 353.933319 C 245.200012 357.399994 235.599976 357.266663 229.333313 353.399994 C 225.200012 351 223.599976 350.733337 216 351.666656 C 210 352.466675 207.06665 352.333344 206.400024 351.266663 C 205.866638 350.333344 204.93335 351.133331 204.133362 353.399994 C 202.93335 356.333344 202 356.866669 198.133362 356.733337 C 195.599976 356.600006 192.133362 357.399994 190.400024 358.600006 C 186.533325 361.133331 167.466675 365.133331 160.666687 365 C 143.599976 364.466675 101.333344 364.466675 94 365 C 88.533325 365.266663 76.533325 364.200012 74.799988 363.133331 C 72.666656 361.799988 52.799988 362.466675 40.399994 364.466675 C 37.066681 365 34 364.733337 33.066681 363.933319 C 32.133331 363.266663 27.466675 362.333344 22.666656 361.933319 C 17.866669 361.533325 12.266663 360.600006 10.266663 359.799988 C 5.200012 357.799988 -0.933319 357.933319 -1.733337 359.933319 C -2.133331 360.866669 -2.533325 352.600006 -2.533325 341.666656 C -2.666656 330.600006 -3.066681 314.200012 -3.333344 305 C -3.600006 295.799988 -4.266663 251.399994 -4.666656 206.333313 C -5.066681 161.266663 -5.733337 122.466675 -6 120.333313 C -6.266663 118.06665 -6.933319 98.06665 -7.466675 75.666687 C -8.266663 38.466675 -8.133331 34.866638 -6.133331 33.133362 C -4.399994 31.666687 -3.466675 31.666687 -2.399994 32.733337 C -0.399994 34.733337 1.733337 34.866638 0.666656 33 C 0.133331 32.06665 1.066681 31.93335 3.333344 32.466675 C 6 33.133362 7.466675 32.599976 9.466675 30.466675 C 11.733337 28.06665 13.200012 27.666687 18 28.200012 C 21.200012 28.599976 24.266663 28.333313 24.666656 27.666687 C 26 25.533325 33.333344 26.06665 33.333344 28.333313 C 33.333344 29.400024 32.533325 30.333313 31.466675 30.333313 C 30.266663 30.333313 29.733337 31.666687 29.866669 33.666687 C 29.866669 35.533325 30.266663 37 30.533325 37 C 31.200012 37 47.200012 23.266663 48.266663 21.666687 C 48.933319 20.866638 49.333344 20.866638 49.333344 21.799988 C 49.333344 23.93335 63.333344 23.266663 66 21 C 67.466675 19.799988 68 19.799988 68 20.866638 C 68 22.733337 74.799988 22.333313 76.133331 20.466675 C 77.866669 18.200012 80.266663 21.266663 79.466675 24.466675 C 78.666656 27.666687 80.399994 28.866638 82.133331 26.200012 C 82.533325 25.400024 84.133331 25 85.466675 25.400024 C 86.933319 25.799988 88 25.533325 88 24.733337 C 88 24.06665 89.066681 23.666687 90.399994 23.93335 C 91.600006 24.333313 94.933319 23.400024 97.600006 22.06665 C 103.466675 19.133362 106.133362 19 107.06665 21.533325 C 108.266663 24.466675 114.93335 22.466675 118.93335 17.93335 C 122.799988 13.666687 123.466675 13.400024 140.666687 12.466675 C 154.93335 11.666687 163.200012 10.599976 171.733337 8.333313 C 177.599976 6.866638 178.666687 6.866638 178.666687 8.466675 C 178.666687 10.466675 182.799988 11 184.533325 9.266663 C 186.400024 7.533325 198.533325 8.200012 199.333313 10.200012 C 199.866638 11.533325 200.533325 11.666687 201.599976 10.599976 C 202.400024 9.799988 203.866638 9.533325 204.799988 9.93335 C 205.866638 10.333313 206.666687 9.799988 206.666687 8.866638 C 206.666687 7.666687 207.06665 7.533325 208.133362 8.599976 C 209.200012 9.666687 210.533325 9.533325 213.06665 8.200012 C 216.533325 6.466675 220.400024 7.133362 217.333313 9 C 216.400024 9.533325 216.133362 10.733337 216.533325 11.533325 C 217.06665 12.333313 218.133362 12.599976 218.93335 12.200012 C 221.733337 10.466675 234.533325 10.599976 235.200012 12.466675 C 235.599976 13.533325 237.333313 14.333313 239.200012 14.333313 C 240.93335 14.333313 242.799988 15.133362 243.06665 15.93335 C 243.466675 16.866638 243.866638 16.466675 243.866638 15.133362 C 244 13 244.400024 12.866638 245.599976 14.06665 C 246.533325 15 248.266663 15.666687 249.466675 15.666687 C 250.799988 15.666687 252 16.466675 252.400024 17.266663 C 253.06665 19.400024 258.666687 14.866638 258.666687 12.06665 C 258.666687 9.666687 261.200012 9.799988 262.133362 12.333313 C 262.666687 13.400024 263.733337 14.333313 264.799988 14.333313 C 265.866638 14.333313 266.666687 15.266663 266.666687 16.333313 C 266.666687 18.866638 268.799988 18.866638 269.866638 16.333313 C 270.266663 15.266663 271.333313 14.733337 272.400024 15.133362 C 273.466675 15.533325 276.93335 14.866638 280.133362 13.799988 C 283.333313 12.733337 289.333313 11.533325 293.333313 11.266663 C 297.333313 10.866638 300.799988 10.06665 301.06665 9.266663 C 301.333313 8.333313 302.533325 8.200012 304.799988 9 C 310 11 320 12.06665 320 10.599976 C 320 9.799988 321.466675 9.93335 323.733337 11 C 325.733337 11.93335 331.466675 13.133362 336.666687 13.533325 C 341.733337 14.06665 346.266663 14.866638 346.666687 15.400024 C 347.06665 15.93335 350.266663 16.333313 353.733337 16.200012 C 357.200012 16.200012 360.400024 16.599976 360.799988 17.133362 C 361.06665 17.666687 363.06665 17.799988 365.200012 17.533325 C 367.333313 17.133362 369.466675 17.533325 370 18.333313 C 370.400024 19 372.533325 19.666687 374.799988 19.666687 C 376.93335 19.666687 378.666687 20.333313 378.666687 21.133362 C 378.666687 21.799988 379.200012 22.200012 379.866638 21.799988 C 380.533325 21.400024 381.333313 21.93335 381.866638 23 C 382.666687 25.266663 386.799988 25.666687 388.93335 23.533325 C 390.266663 22.200012 404 20.599976 410.666687 21 C 412.533325 21.133362 418 21.400024 422.93335 21.533325 C 428 21.533325 432 22.06665 432 22.599976 C 432 23 436.266663 23.133362 441.333313 22.866638 C 450.533325 22.333313 458.666687 19.533325 458.666687 17 C 458.666687 16.200012 459.866638 15.666687 461.200012 15.666687 C 462.666687 15.666687 464.799988 14.333313 465.866638 12.866638 C 467.599976 10.200012 468.93335 9.93335 478.666687 10.200012 C 484.533325 10.333313 492 11.266663 495.200012 12.200012 C 500 13.666687 501.733337 13.666687 505.466675 12.06665 C 510.400024 10.06665 524 9.533325 542.666687 10.866638 C 549.599976 11.266663 558.93335 11.93335 563.333313 12.333313 C 567.733337 12.599976 571.466675 13.533325 571.733337 14.200012 C 572 15 572.799988 15.400024 573.466675 14.866638 C 574.133362 14.466675 574.666687 14.866638 574.666687 15.533325 C 574.666687 16.333313 575.866638 17 577.200012 17 C 578.666687 17 580.266663 17.666687 580.666687 18.466675 C 581.333313 19.400024 582.400024 19.133362 584 17.666687 C 586.666687 15.266663 589.333313 15.93335 589.333313 19.133362 C 589.333313 21.533325 590 21.533325 593.733337 19.133362 C 596.666687 17.133362 606.93335 14.06665 610.666687 14.06665 C 615.333313 14.06665 627.733276 15.400024 628.800049 15.93335 C 629.466675 16.333313 632.93335 16.200012 636.400024 15.666687 C 639.866699 15.133362 643.06665 15.266663 643.466675 15.93335 C 644.400024 17.533325 655.866699 16.06665 658.133301 14.200012 C 659.199951 13.400024 660 13.133362 660 13.666687 C 660 14.200012 660.800049 14.06665 661.733276 13.266663 C 664 11.400024 689.866699 8.333313 692.93335 9.666687 C 694.266724 10.333313 695.866699 10.599976 696.533325 10.466675 C 697.06665 10.333313 698.400024 10.866638 699.466675 11.799988 C 700.533325 12.599976 702.93335 12.866638 705.599976 12.200012 C 708 11.666687 715.466675 11.400024 722.266724 11.400024 C 732.533325 11.666687 735.333374 11.133362 739.333374 8.866638 C 742.133301 7.133362 745.199951 6.333313 747.06665 6.866638 C 748.666626 7.266663 750.93335 7 752 6.333313 C 754.533325 4.733337 764 4.599976 764 6.200012 Z"/>
    </g>
</svg>
