<?xml version="1.0" encoding="UTF-8"?>
<!-- Generated by Pixelmator Pro 3.7 -->
<svg width="1285" height="165" viewBox="0 0 1285 165" xmlns="http://www.w3.org/2000/svg">
    <g id="Gruppe">
        <path id="Pfad" fill="#000000" stroke="none" d="M -346 125 L -346 519 L 507.333313 519 L 1360.666626 519 L 1360.666626 125 L 1360.666626 -269 L 507.333313 -269 L -346 -269 L -346 125 Z M 793.333374 8.066681 C 798.533325 9.533325 807.199951 11.133331 812.666626 11.666656 C 818.133301 12.200012 825.333374 13.266663 828.666626 13.933319 C 832 14.733337 837.333374 15.666656 840.666626 15.799988 C 844 16.066681 850.533325 16.733337 855.333374 17.533325 C 860 18.200012 864.400024 18.466675 865.06665 18.066681 C 867.199951 16.733337 885.866699 15.933319 910.93335 16.066681 C 932 16.066681 937.06665 16.466675 939.599976 18.200012 C 941.199951 19.399994 943.866699 20.333344 945.599976 20.333344 C 947.199951 20.333344 948.93335 21 949.333374 21.666656 C 949.866699 22.466675 950.93335 23 951.733276 22.866669 C 952.666626 22.733337 954.93335 23.266663 956.800049 23.933319 C 958.666626 24.733337 961.333374 25.533325 962.800049 25.799988 C 966 26.200012 975.199951 24.466675 978.400024 22.733337 C 979.733276 22.066681 984.533325 21.533325 989.06665 21.533325 C 994 21.533325 997.599976 20.866669 998.266724 19.933319 C 998.93335 18.733337 1004 18.466675 1015.733276 18.733337 C 1028 19 1033.333374 18.600006 1036.93335 17.133331 C 1039.466675 15.933319 1042 15.533325 1042.533325 15.933319 C 1043.733276 17.266663 1052 16.600006 1068.400024 14.200012 C 1081.199951 12.200012 1084 12.066681 1086.400024 13.666656 C 1088 14.600006 1093.599976 15.533325 1099.599976 15.666656 C 1107.333374 15.799988 1110.533325 16.466675 1112.400024 18.066681 C 1114.666626 20.200012 1117.06665 20.333344 1132.800049 19.666656 C 1142.666626 19.266663 1152.800049 18.866669 1155.333374 18.866669 C 1157.866699 18.866669 1163.199951 18.333344 1167.199951 17.666656 C 1174.93335 16.200012 1180.666626 17 1180.666626 19.533325 C 1180.666626 20.600006 1189.333374 21.133331 1210.93335 21.399994 C 1230.400024 21.666656 1241.866699 22.333344 1242.93335 23.266663 C 1244.266724 24.333344 1245.333374 24.066681 1247.333374 22.333344 C 1250 19.933319 1257.866699 18.600006 1270.666626 18.733337 C 1280.133301 18.866669 1290.400024 22.733337 1292.800049 27.266663 C 1293.733276 29 1295.466675 31.133331 1296.93335 32.066681 C 1298.266724 33 1299.333374 35.266663 1299.333374 37.133331 C 1299.333374 39 1300.266724 42.333344 1301.466675 44.466675 C 1303.333374 48.200012 1303.333374 48.733337 1301.466675 50.866669 C 1300.266724 52.200012 1299.333374 53.799988 1299.333374 54.466675 C 1299.333374 55.133331 1297.599976 57.799988 1295.599976 60.333344 C 1289.06665 68.466675 1286.93335 77.533325 1288 93.533325 C 1288.800049 104.466675 1289.466675 107.799988 1291.466675 109.799988 C 1294.533325 112.866669 1294.800049 118.066681 1292 120.333344 C 1289.466675 122.466675 1289.466675 125.799988 1292.266724 133.799988 C 1293.599976 137.266663 1294.266724 140.600006 1293.733276 141 C 1293.333374 141.533325 1290.93335 141.799988 1288.533325 141.666656 C 1260.93335 141.133331 1250.533325 141.133331 1250 141.933319 C 1249.599976 142.466675 1246.666626 142.066681 1243.599976 140.866669 C 1240 139.666656 1232.93335 139 1224.266724 139 C 1216.800049 139 1208.93335 138.733337 1206.93335 138.333344 C 1198.266724 136.600006 1181.199951 135.399994 1179.866699 136.466675 C 1179.06665 137.133331 1168.800049 137.666656 1157.06665 137.533325 C 1143.199951 137.533325 1134.533325 138.066681 1132.266724 139.133331 C 1129.333374 140.466675 1126.533325 140.066681 1115.06665 137.266663 C 1107.466675 135.399994 1095.333374 133.399994 1088 133 C 1080.666626 132.600006 1071.733276 131.933319 1068.266724 131.399994 C 1062.93335 130.733337 1061.333374 131.133331 1058.93335 133.399994 C 1057.333374 134.866669 1051.466675 137.533325 1046 139.399994 C 1035.333374 143 1024.266724 144.466675 988 147.666656 C 975.599976 148.733337 961.199951 150.066681 956 150.466675 C 950.93335 150.866669 945.06665 152.066681 943.199951 153.133331 C 940.93335 154.333344 934.93335 154.866669 926.666626 154.866669 C 916.800049 154.866669 913.199951 155.399994 911.466675 156.866669 C 909.599976 158.600006 907.733276 158.733337 901.199951 157.666656 C 896.93335 157 879.866699 156.466675 863.333374 156.600006 C 837.466675 156.866669 832.400024 156.466675 826.133301 154.466675 C 821.199951 152.733337 816.800049 152.200012 812 152.733337 C 807.333374 153.133331 801.06665 152.600006 793.733276 150.866669 C 781.199951 147.933319 774.666626 147.133331 757.333374 146.333344 C 750.800049 145.933319 743.733276 145.133331 741.733276 144.466675 C 739.599976 143.666656 724.133301 143.399994 705.466675 143.799988 C 683.466675 144.200012 671.733337 143.933319 669.06665 142.866669 C 667.06665 142.066681 657.599976 141.133331 648.133362 140.866669 C 634.533325 140.466675 630 140.866669 626.133362 142.600006 C 620.266663 145.133331 607.06665 145.133331 574 142.733337 C 548.666687 140.866669 548.799988 140.866669 491.333313 141.533325 C 469.733337 141.799988 449.866638 141.533325 447.333313 141.133331 C 444.799988 140.600006 430.533325 141.133331 415.866638 142.200012 L 389.06665 144.200012 L 368.533325 138.866669 C 357.333313 136.066681 345.599976 133.666656 342.666687 133.666656 C 339.733337 133.666656 332.799988 132.333344 327.333313 130.866669 C 317.06665 128.066681 303.333313 125.666656 301.866638 126.466675 C 300.400024 127.266663 284.666687 128.600006 273.333313 129 C 267.466675 129.133331 260.533325 129.533325 258 129.933319 C 255.466675 130.333344 252.533325 130.066681 251.733337 129.266663 C 250.533325 128.466675 249.466675 128.466675 248.400024 129.266663 C 247.466675 130.066681 244.133362 131 241.200012 131.533325 C 238.133362 131.933319 234 133.266663 231.866638 134.333344 C 229.733337 135.399994 226.666687 136.333344 225.06665 136.333344 C 223.466675 136.333344 218.93335 137.533325 215.06665 139.133331 C 206 142.733337 188 147 182 147 C 179.333313 147 176.533325 147.666656 175.866638 148.333344 C 175.06665 149.133331 172.666687 149.799988 170.533325 149.799988 C 161.333344 150.200012 128.666656 147 122 145.133331 C 118 143.933319 113.333344 143 111.733337 143 C 110.133331 143 106.666656 141.533325 104 139.799988 C 101.466675 138.066681 96.533325 136.200012 92.933319 135.799988 C 89.466675 135.266663 84.266663 134.466675 81.333344 134.066681 C 78.399994 133.533325 61.866669 133.133331 44.533325 133.133331 C 20.266663 133 12.533325 133.399994 10.933319 134.733337 C 9.733337 135.799988 8.133331 136.200012 7.333344 135.666656 C 6.533325 135.133331 5.200012 135.266663 4.266663 136.066681 C 2.266663 137.533325 -3.200012 137.266663 -6.666656 135.399994 C -9.200012 133.933319 -9.333344 132.466675 -9.200012 84.200012 C -9.200012 47.399994 -8.666656 34.333344 -7.600006 33.933319 C -6.666656 33.666656 -6 30.866669 -6 27.666656 C -6 22.333344 -5.733337 21.933319 -1.733337 21.133331 C 7.466675 19.266663 16.799988 18.200012 17.333344 19 C 17.600006 19.399994 20.799988 19.666656 24.533325 19.533325 C 29.066681 19.399994 31.466675 19.933319 31.866669 21.133331 C 32.666656 23.133331 36.666656 23.799988 36.666656 21.933319 C 36.666656 20.733337 57.466675 20.733337 58.666656 21.933319 C 59.066681 22.333344 57.333344 23.133331 54.666656 23.533325 C 52.133331 24.066681 50 25 50 25.666656 C 50 27.533325 51.200012 27.399994 60.666656 24.333344 C 65.200012 22.866669 70.399994 21.666656 72.133331 21.666656 C 73.733337 21.666656 75.600006 21.133331 76 20.333344 C 76.399994 19.666656 80.266663 19.399994 85.066681 19.799988 C 89.600006 20.200012 96.399994 20.600006 100.266663 20.866669 C 104 21 107.600006 21.533325 108.133331 22.066681 C 108.666656 22.600006 108.399994 23 107.466675 23 C 106.533325 23 106.133331 23.533325 106.666656 24.333344 C 107.200012 25.133331 108.666656 25 110.666656 24.066681 C 113.200012 23 114.399994 23 116 24.333344 C 117.066681 25.266663 118.399994 25.666656 118.799988 25.266663 C 119.200012 24.866669 121.066681 25 122.933319 25.799988 C 125.200012 26.600006 127.200012 26.466675 129.733337 25.133331 C 131.733337 24.200012 136.666656 23.266663 140.799988 23.266663 C 144.933319 23.133331 150.799988 22.600006 153.733337 21.933319 C 157.466675 21 161.466675 21.133331 166.266663 22.200012 C 170.533325 23.133331 180.533325 23.666656 191.333313 23.399994 C 201.200012 23.133331 211.06665 23 213.200012 23 C 215.333313 23 218.400024 22.200012 220.133362 21.133331 C 221.866638 19.799988 223.333313 19.666656 223.599976 20.466675 C 224.133362 22.066681 226.400024 22.200012 240.666687 21.133331 C 257.466675 19.799988 274 17.399994 274 16.066681 C 274 13.933319 326 18.066681 348.666687 22.200012 C 354.133362 23.266663 360.133362 23.933319 362 23.933319 C 363.866638 23.933319 371.06665 24.600006 378 25.533325 C 390 27.133331 392.533325 27.933319 411.599976 37 C 415.599976 38.866669 418 39.133331 425.599976 38.200012 C 430.533325 37.533325 436.133362 37.133331 438 37.266663 C 439.733337 37.399994 445.333313 36.066681 450.266663 34.333344 C 459.200012 31.133331 459.466675 31.133331 465.333313 33.399994 C 468.666687 34.733337 471.06665 36.066681 470.666687 36.466675 C 470.266663 36.866669 471.06665 38.200012 472.400024 39.533325 C 474.666687 41.533325 475.333313 41.533325 479.733337 39.666656 C 485.466675 37.266663 487.866638 37.133331 486.666687 39.133331 C 486 40.066681 488.533325 40.333344 494.93335 39.799988 C 505.200012 39.133331 508.666687 38.466675 519.733337 34.866669 C 524 33.533325 528.266663 32.733337 529.333313 33.133331 C 530.266663 33.533325 534.400024 32.333344 538.266663 30.333344 C 547.866638 25.399994 570.400024 21.666656 575.200012 24.200012 C 577.333313 25.399994 579.733337 25.133331 586.266663 23.133331 C 609.333313 15.799988 628.799988 12.600006 669.06665 9.666656 C 677.733337 9 689.199951 7.799988 694.400024 7 C 708.266724 5 712.400024 4.866638 750 5 C 780.400024 5.133362 785.06665 5.533325 793.333374 8.066681 Z"/>
    </g>
</svg>
